<svg xmlns="http://www.w3.org/2000/svg" viewBox="0 0 448 512" fill="#4dabf7">
  <path d="M394.1 212.8c-20.3-20.3-47.7-31.6-76.4-31.6h-11c-15.2 0-28-11.7-29.1-26.9c-2.3-29.9-2.1-60 .5-89.9c.9-12.3-2.9-24.7-10.7-34.1c-7.7-9.3-19-15-30.9-15.9L210.8 13c-32.3-2.5-62.6 15.7-73.9 44.3c-7.7 19.2-18.1 37.3-30.9 53.9l-17.1 22c-9.5 12.3-23.5 19.8-38.7 21c-36.3 2.7-57.8 39.8-45 73.5L16.8 255c14 37 14 77.9 0 114.9l-11.6 27.2c-12.9 33.7 8.6 70.9 45 73.5c15.3 1.1 29.2 8.6 38.7 21l17.1 22c12.8 16.6 23.2 34.7 30.9 53.9c11.3 28.6 41.6 46.8 73.9 44.3l25.7-2c11.9-1 23.2-6.7 30.9-15.9c7.8-9.5 11.5-21.8 10.7-34.1c-2.6-29.8-2.8-59.9-.5-89.9c1.1-15.2 13.9-26.9 29.1-26.9h11c28.6 0 56.1-11.3 76.4-31.6s31.6-47.7 31.6-76.4s-11.3-56.1-31.6-76.4zM224 320c-44.2 0-80-35.8-80-80s35.8-80 80-80s80 35.8 80 80s-35.8 80-80 80z"/>
</svg> 