<?xml version="1.0" encoding="UTF-8"?>
<svg width="512" height="512" viewBox="0 0 512 512" xmlns="http://www.w3.org/2000/svg">
  <rect width="512" height="512" rx="64" fill="#0a6e8c"/>
  <path d="M331.3,170.7c-8.4-25.5-32.1-42.7-58.9-42.7h-32c-26.8,0-50.5,17.2-58.9,42.7c-6.1,18.5-19.4,33.8-37,42.3
    c-32.3,15.7-51.4,49.5-48.9,86c2.7,40.5,19.9,94.2,46.3,144.9c9.4,18.1,31.9,24.5,49.1,13.9c22.1-13.6,47.1-20.7,72.6-20.7
    c25.6,0,50.6,7.2,72.7,20.8c17.2,10.6,39.6,4.2,49-13.8c26.4-50.7,43.6-104.4,46.3-144.9c2.5-36.5-16.6-70.3-48.9-86
    C350.7,204.5,337.4,189.2,331.3,170.7z M309.3,149.3c0,11.8-9.5,21.3-21.3,21.3h-64c-11.8,0-21.3-9.5-21.3-21.3S212.2,128,224,128h64
    C299.8,128,309.3,137.5,309.3,149.3z" fill="white"/>
</svg> 